<svg xmlns="http://www.w3.org/2000/svg" viewBox="0 0 900 520" role="img" aria-labelledby="title">
  <title id="title">Upload video walkthrough</title>
  <rect width="900" height="520" rx="28" fill="#070707"/>
  <path d="M0 80h900M0 160h900M0 240h900M0 320h900M0 400h900M90 0v520M180 0v520M270 0v520M360 0v520M450 0v520M540 0v520M630 0v520M720 0v520M810 0v520" stroke="#171717" stroke-width="1"/>
  <rect x="58" y="56" width="784" height="408" rx="26" fill="#050606" stroke="#3a3a3a" stroke-width="3" stroke-dasharray="10 9"/>
  <rect x="360" y="178" width="180" height="126" rx="18" fill="#111"/>
  <path d="M410 228h80M450 188v80" stroke="#f5f0c8" stroke-width="12" stroke-linecap="round"/>
  <text x="450" y="355" text-anchor="middle" fill="#f5f0c8" font-family="Inter, Arial" font-size="28" font-weight="700">Click canvas to upload</text>
  <text x="450" y="392" text-anchor="middle" fill="#777" font-family="Inter, Arial" font-size="18">MP4, MOV, or WebM</text>
</svg>
